<?xml version="1.0" standalone="no"?>
<!DOCTYPE svg PUBLIC "-//W3C//DTD SVG 20010904//EN"
 "http://www.w3.org/TR/2001/REC-SVG-20010904/DTD/svg10.dtd">
<svg version="1.0" xmlns="http://www.w3.org/2000/svg"
 width="389.000000pt" height="198.000000pt" viewBox="0 0 389.000000 198.000000"
 preserveAspectRatio="xMidYMid meet">
<metadata>
Created by potrace 1.15, written by Peter Selinger 2001-2017
</metadata>
<g transform="translate(0.000000,198.000000) scale(0.100000,-0.100000)"
fill="#000000" stroke="none">
<path d="M247 1963 c-2 -5 -7 -21 -11 -38 -4 -16 -9 -38 -12 -47 -5 -17 14
-18 310 -18 304 0 315 -1 299 -18 -10 -10 -193 -197 -408 -416 -215 -218 -395
-409 -401 -424 -7 -15 -15 -42 -19 -60 l-7 -32 408 2 408 3 6 25 c4 14 10 37
14 53 l6 27 -315 0 c-173 0 -315 3 -315 6 0 11 74 89 451 472 306 311 368 379
374 408 3 20 9 42 12 50 4 12 -52 14 -395 14 -221 0 -403 -3 -405 -7z"/>
<path d="M2125 1848 c-4 -11 -93 -392 -124 -530 -9 -37 -8 -38 18 -38 27 0 28
2 63 152 33 146 36 153 71 182 47 37 141 49 182 22 33 -21 32 -39 -9 -213
l-33 -143 27 0 c26 0 27 2 63 163 21 89 37 170 37 179 0 29 -43 69 -85 78 -49
11 -106 -2 -158 -37 -20 -14 -39 -24 -42 -22 -2 3 7 51 21 108 13 56 24 105
24 107 0 10 -51 3 -55 -8z"/>
<path d="M2632 1570 l-191 -290 39 0 c36 0 40 3 79 65 l42 65 162 -2 161 -3
11 -60 c10 -58 11 -60 43 -63 25 -3 32 0 32 15 -1 10 -24 140 -53 288 l-53
270 -40 3 -41 3 -191 -291z m253 56 c14 -81 24 -150 22 -152 -2 -3 -63 -3
-134 -2 l-131 3 102 157 c55 87 104 154 108 150 4 -4 19 -74 33 -156z"/>
<path d="M3212 1712 c-18 -81 -48 -211 -66 -289 l-33 -143 31 0 31 0 53 233
c29 127 59 258 67 290 l13 57 -31 0 -32 0 -33 -148z"/>
<path d="M3465 1849 c-2 -8 -32 -133 -65 -279 -33 -146 -63 -271 -65 -277 -3
-9 6 -13 28 -13 l32 0 25 113 25 112 74 0 75 0 49 -112 c49 -112 50 -113 83
-113 19 0 34 2 34 4 0 2 -24 54 -54 117 l-55 114 41 7 c99 18 164 99 156 195
-5 58 -28 92 -83 121 -42 22 -292 31 -300 11z m283 -74 c54 -46 49 -118 -12
-175 -26 -23 -35 -25 -153 -28 -103 -3 -125 -1 -121 10 3 7 16 60 28 116 l23
102 103 0 c95 0 105 -2 132 -25z"/>
<path d="M1138 1696 c-97 -26 -166 -110 -175 -214 -12 -126 63 -204 197 -206
93 0 174 37 144 66 -3 4 -22 -1 -42 -9 -24 -10 -58 -14 -104 -11 -58 3 -72 8
-98 33 -29 28 -55 89 -44 107 3 4 86 8 185 8 l179 0 0 49 c0 58 -13 97 -43
129 -47 51 -123 69 -199 48z m147 -58 c15 -12 34 -36 41 -54 27 -65 31 -64
-146 -64 l-160 0 11 28 c13 33 44 69 84 93 44 27 134 26 170 -3z"/>
<path d="M1713 1700 c-18 -4 -48 -19 -67 -34 -44 -33 -47 -33 -36 4 8 28 7 30
-19 30 l-27 0 -64 -272 c-35 -150 -65 -281 -68 -290 -3 -14 2 -18 21 -18 29 0
33 9 64 153 9 42 19 77 23 77 4 0 15 -9 26 -21 47 -52 156 -70 219 -36 38 19
87 72 111 117 28 53 27 188 -2 227 -40 53 -114 79 -181 63z m114 -85 c35 -35
35 -37 31 -104 -6 -115 -69 -181 -172 -181 -52 0 -104 18 -125 44 -13 15 -12
29 7 113 12 52 27 102 34 110 24 29 83 52 137 53 48 0 57 -4 88 -35z"/>
<path d="M1615 1101 c-47 -21 -99 -70 -121 -114 -23 -44 -24 -116 -1 -131 15
-9 21 -7 33 8 8 11 14 31 14 45 0 35 31 83 76 117 31 24 47 29 93 28 100 0
173 -74 173 -174 -1 -60 -21 -101 -69 -137 l-36 -28 -771 -3 c-699 -2 -772 -4
-783 -18 -9 -12 -9 -22 -2 -35 9 -18 38 -19 760 -19 519 0 764 3 794 11 58 15
126 75 155 136 18 39 21 60 17 108 -5 70 -23 109 -69 155 -46 46 -103 70 -168
70 -32 0 -72 -8 -95 -19z"/>
<path d="M2370 828 c-48 -24 -62 -55 -36 -77 11 -9 21 -8 48 9 45 27 93 26
123 -4 32 -32 40 -69 25 -107 -27 -63 59 -59 -1231 -59 -648 0 -1184 -3 -1193
-6 -25 -10 -20 -53 7 -59 12 -3 553 -4 1203 -3 l1181 3 36 28 c48 36 67 75 67
132 0 123 -122 199 -230 143z"/>
<path d="M583 464 c-18 -8 -16 -51 3 -58 9 -3 341 -6 738 -6 l723 0 34 -23
c74 -50 100 -136 63 -213 -35 -73 -140 -106 -218 -69 -39 19 -86 86 -86 123 0
35 -11 52 -36 52 -30 0 -39 -33 -25 -87 17 -64 65 -121 124 -149 93 -43 184
-27 258 46 106 105 84 275 -45 355 l-49 30 -736 2 c-405 1 -742 -1 -748 -3z"/>
</g>
</svg>
